<?xml version="1.0" encoding="iso-8859-1"?>
<!-- Generator: Adobe Illustrator 19.0.0, SVG Export Plug-In . SVG Version: 6.00 Build 0)  -->
<svg version="1.1" id="Layer_1" xmlns="http://www.w3.org/2000/svg" xmlns:xlink="http://www.w3.org/1999/xlink" x="0px" y="0px"
	 viewBox="0 0 512 512" style="enable-background:new 0 0 512 512;" xml:space="preserve">
<g>
	<path style="fill:#ECF0F1;" d="M326.96,512H96.763c-14.433,0-26.138-11.705-26.138-26.147V26.147C70.624,11.705,82.33,0,96.763,0
		H326.96c14.442,0,26.147,11.705,26.147,26.147v459.705C353.107,500.295,341.402,512,326.96,512"/>
	<polygon style="fill:#38454F;" points="70.621,441.379 353.103,441.379 353.103,52.966 70.621,52.966 	"/>
	<g>
		<path style="fill:#546A79;" d="M247.172,35.31h-44.138c-4.882,0-8.828-3.946-8.828-8.828s3.946-8.828,8.828-8.828h44.138
			c4.882,0,8.828,3.946,8.828,8.828S252.054,35.31,247.172,35.31"/>
		<path style="fill:#546A79;" d="M176.552,35.31h-8.828c-4.882,0-8.828-3.946-8.828-8.828s3.946-8.828,8.828-8.828h8.828
			c4.882,0,8.828,3.946,8.828,8.828S181.433,35.31,176.552,35.31"/>
	</g>
	<g>
		<path style="fill:#BDC3C7;" d="M61.793,97.103c-4.882,0-8.828-3.946-8.828-8.828v-8.828c0-4.882,3.946-8.828,8.828-8.828
			s8.828,3.946,8.828,8.828v8.828C70.621,93.158,66.675,97.103,61.793,97.103"/>
		<path style="fill:#BDC3C7;" d="M61.793,132.414c-4.882,0-8.828-3.946-8.828-8.828v-8.828c0-4.882,3.946-8.828,8.828-8.828
			s8.828,3.946,8.828,8.828v8.828C70.621,128.468,66.675,132.414,61.793,132.414"/>
		<path style="fill:#BDC3C7;" d="M61.793,167.724c-4.882,0-8.828-3.946-8.828-8.828v-8.828c0-4.882,3.946-8.828,8.828-8.828
			s8.828,3.946,8.828,8.828v8.828C70.621,163.778,66.675,167.724,61.793,167.724"/>
		<path style="fill:#BDC3C7;" d="M238.345,476.69c0,14.627-11.855,26.483-26.483,26.483c-14.627,0-26.483-11.855-26.483-26.483
			c0-14.627,11.855-26.483,26.483-26.483C226.489,450.207,238.345,462.062,238.345,476.69"/>
	</g>
	<polygon style="fill:#4482C3;" points="459.034,273.655 309.239,273.655 291.584,317.793 273.929,273.655 247.172,273.655 
		247.172,97.103 459.034,97.103 	"/>
	<g>
		<path style="fill:#FFFFFF;" d="M388.414,158.897h-70.621c-4.873,0-8.828-3.955-8.828-8.828c0-4.873,3.955-8.828,8.828-8.828
			h70.621c4.873,0,8.828,3.955,8.828,8.828C397.241,154.942,393.287,158.897,388.414,158.897"/>
		<path style="fill:#FFFFFF;" d="M388.414,229.517h-70.621c-4.873,0-8.828-3.955-8.828-8.828c0-4.873,3.955-8.828,8.828-8.828
			h70.621c4.873,0,8.828,3.955,8.828,8.828C397.241,225.562,393.287,229.517,388.414,229.517"/>
		<path style="fill:#FFFFFF;" d="M414.897,194.207H291.31c-4.873,0-8.828-3.955-8.828-8.828c0-4.873,3.955-8.828,8.828-8.828
			h123.586c4.873,0,8.828,3.955,8.828,8.828C423.724,190.252,419.769,194.207,414.897,194.207"/>
	</g>
</g>
<g>
</g>
<g>
</g>
<g>
</g>
<g>
</g>
<g>
</g>
<g>
</g>
<g>
</g>
<g>
</g>
<g>
</g>
<g>
</g>
<g>
</g>
<g>
</g>
<g>
</g>
<g>
</g>
<g>
</g>
</svg>
